<?xml version="1.0" encoding="utf-8"?>
<!-- Generator: Adobe Illustrator 22.1.0, SVG Export Plug-In . SVG Version: 6.00 Build 0)  -->
<svg version="1.1" id="Capa_1" xmlns="http://www.w3.org/2000/svg" xmlns:xlink="http://www.w3.org/1999/xlink" x="0px" y="0px"
	 viewBox="0 0 296 74" style="enable-background:new 0 0 296 74;" xml:space="preserve">
<style type="text/css">
	.st0{fill:#FFFFFF;}
	.st1{font-family:'PTSans-Narrow';}
	.st2{font-size:14.3928px;}
	.st3{fill:#EB8927;}
	.st4{clip-path:url(#SVGID_2_);fill:#FFFFFF;}
	.st5{fill:none;stroke:#EB8927;stroke-width:2;stroke-miterlimit:10;}
</style>
<g>
	<g>
		<text transform="matrix(1 0 0 1 74.8438 71.4736)" class="st0 st1 st2">I  M  A  G  E  N    C  O  R  P  O  R  A  T  I  V  A</text>
	</g>
	<path class="st3" d="M74.5,53.8V5.6h10.4c1.9,0,3.6,0.2,5,0.7c1.4,0.5,2.8,1.4,3.9,2.6c1.2,1.3,2,2.7,2.4,4.4
		c0.5,1.7,0.7,4,0.7,6.9c0,2.2-0.1,4-0.4,5.5c-0.2,1.5-0.8,2.9-1.6,4.2c-0.9,1.6-2.2,2.8-3.8,3.7c-1.6,0.9-3.7,1.3-6.2,1.3h-3.5
		v18.8H74.5z M81.4,12.1v16.4h3.3c1.4,0,2.5-0.2,3.3-0.6c0.8-0.4,1.3-1,1.7-1.7c0.4-0.7,0.6-1.5,0.6-2.5c0.1-1,0.1-2.1,0.1-3.3
		c0-1.1,0-2.2-0.1-3.2c0-1-0.2-1.9-0.6-2.7c-0.4-0.8-0.9-1.4-1.6-1.8c-0.7-0.4-1.8-0.6-3.1-0.6H81.4z"/>
	<path class="st3" d="M124.2,53.8l10.8-48.2h5.8l10.8,48.2h-6.9l-2-10.4h-9.4l-2,10.4H124.2z M141.2,36.9l-3.4-17.5h-0.1l-3.4,17.5
		H141.2z"/>
	<polygon class="st3" points="180,53.8 180,5.6 187,5.6 187,46.9 200.6,46.9 200.6,53.8 	"/>
	<rect x="230.5" y="5.6" class="st3" width="6.9" height="48.2"/>
	<path class="st3" d="M291.7,19.4h-6.9v-1.6c0-1.6-0.4-2.9-1.1-4.1c-0.7-1.2-2-1.7-3.8-1.7c-0.9,0-1.7,0.2-2.3,0.5
		c-0.6,0.4-1.1,0.8-1.4,1.4c-0.4,0.6-0.6,1.3-0.7,2c-0.1,0.7-0.2,1.5-0.2,2.3c0,0.9,0,1.7,0.1,2.4c0.1,0.6,0.2,1.2,0.5,1.7
		c0.3,0.5,0.7,0.9,1.2,1.3c0.5,0.4,1.2,0.7,2.1,1.1l5.3,2.1c1.5,0.6,2.8,1.3,3.7,2.1c0.9,0.8,1.7,1.7,2.2,2.7c0.5,1.1,0.8,2.3,1,3.7
		c0.2,1.4,0.3,2.9,0.3,4.7c0,2-0.2,3.9-0.6,5.7c-0.4,1.7-1.1,3.2-2,4.4c-0.9,1.3-2.2,2.3-3.7,3c-1.5,0.7-3.4,1.1-5.6,1.1
		c-1.7,0-3.2-0.3-4.7-0.9c-1.4-0.6-2.7-1.4-3.7-2.4c-1-1-1.9-2.2-2.5-3.6c-0.6-1.4-0.9-2.9-0.9-4.5v-2.6h6.9v2.2
		c0,1.3,0.4,2.4,1.1,3.4c0.7,1,2,1.5,3.8,1.5c1.2,0,2.1-0.2,2.7-0.5c0.7-0.3,1.2-0.8,1.5-1.5c0.4-0.6,0.6-1.4,0.6-2.3
		c0.1-0.9,0.1-1.9,0.1-2.9c0-1.3,0-2.3-0.1-3.1c-0.1-0.8-0.3-1.5-0.5-2c-0.3-0.5-0.7-0.9-1.3-1.2c-0.5-0.3-1.2-0.7-2.1-1l-4.9-2
		c-3-1.2-5-2.8-6-4.8c-1-2-1.5-4.5-1.5-7.6c0-1.8,0.2-3.5,0.7-5.1c0.5-1.6,1.2-3,2.2-4.2c0.9-1.2,2.2-2.1,3.6-2.8
		c1.5-0.7,3.2-1.1,5.3-1.1c1.7,0,3.3,0.3,4.7,0.9c1.4,0.6,2.7,1.5,3.7,2.5c2.1,2.2,3.1,4.7,3.1,7.5V19.4z"/>
	<g>
		<defs>
			<rect id="SVGID_1_" x="18.9" y="9.5" width="34.9" height="49.8"/>
		</defs>
		<clipPath id="SVGID_2_">
			<use xlink:href="#SVGID_1_"  style="overflow:visible;"/>
		</clipPath>
		<path class="st4" d="M38.7,16.7c5,0,8.8,1,11.4,3c2.5,2,3.8,4.9,3.8,8.8c0,3.9-1.2,6.9-3.7,8.9c-2.4,2-6,3-10.8,3h-7.8v17.2
			l-3.9-2V16.7H38.7z M31.6,36.8h8.7c3,0,5.4-0.7,7-2.2c1.6-1.4,2.4-3.5,2.4-6.2c0-2.8-0.9-4.9-2.6-6.3c-1.7-1.4-4.4-2.1-8-2.1h-7.6
			V36.8z"/>
		<path class="st4" d="M53.5,43.9c-1.1,5.2-3,9-5.7,11.5c-2.7,2.5-6.3,3.8-10.7,3.8c-5.8,0-10.3-2.2-13.4-6.6
			c-3.2-4.4-4.7-10.6-4.7-18.7c0-7.8,1.6-13.9,4.7-18.1c3.1-4.2,7.6-6.3,13.4-6.3c4.1,0,7.4,1.1,10.1,3.4c2.6,2.3,4.6,5.7,5.9,10.4
			l-4.1,1c-1.2-3.7-2.8-6.5-4.8-8.2c-2-1.8-4.4-2.7-7.3-2.7c-4.2,0-7.5,1.8-9.8,5.4c-2.3,3.6-3.4,8.8-3.4,15.5
			c0,6.7,1.2,11.9,3.6,15.6c2.4,3.7,5.8,5.6,10.1,5.6c3.2,0,5.8-1,7.8-3c2-2,3.5-5.1,4.4-9.3L53.5,43.9z"/>
	</g>
	<path class="st5" d="M62.5,34.1c0,17.7-12.5,32.1-27.9,32.1c-15.4,0-27.9-14.4-27.9-32.1C6.8,16.4,19.3,2,34.7,2
		C50,2,62.5,16.4,62.5,34.1z"/>
	<path class="st3" d="M36.4,16.7c5,0,8.8,1,11.4,3c2.5,2,3.8,4.9,3.8,8.8c0,3.9-1.2,6.9-3.7,8.9c-2.4,2-6,3-10.8,3h-7.8v17.2l-3.9-2
		V16.7H36.4z M29.4,36.8h8.7c3,0,5.4-0.7,7-2.2c1.6-1.4,2.4-3.5,2.4-6.2c0-2.8-0.9-4.9-2.6-6.3c-1.7-1.4-4.4-2.1-8-2.1h-7.6V36.8z"
		/>
	<path class="st3" d="M51.2,43.9c-1.1,5.2-3,9-5.7,11.5c-2.7,2.5-6.3,3.8-10.7,3.8c-5.8,0-10.3-2.2-13.4-6.6
		c-3.1-4.4-4.7-10.6-4.7-18.7c0-7.8,1.6-13.9,4.7-18.1c3.1-4.2,7.6-6.3,13.4-6.3c4.1,0,7.4,1.1,10.1,3.4c2.6,2.3,4.6,5.7,5.9,10.4
		l-4.1,1c-1.2-3.7-2.8-6.5-4.8-8.2c-2-1.8-4.4-2.7-7.3-2.7c-4.2,0-7.5,1.8-9.8,5.4c-2.3,3.6-3.4,8.8-3.4,15.5
		c0,6.7,1.2,11.9,3.6,15.6c2.4,3.7,5.8,5.6,10.1,5.6c3.2,0,5.8-1,7.8-3c2-2,3.5-5.1,4.4-9.3L51.2,43.9z"/>
</g>
</svg>
